<svg xmlns="http://www.w3.org/2000/svg" width="43" height="44" viewBox="0 0 43 44"><path d="M42.722 17.355l-.446-.682a1.474 1.474 0 00-.938-.641 1.474 1.474 0 00-1.117.211l-8.522 5.588a1.462 1.462 0 00-.54-.104H16.846a.633.633 0 100 1.265h2.76l-7.948 7.948v-7.743c0-.113.092-.205.205-.205h1.997a.633.633 0 100-1.265h-1.997c-.19 0-.372.037-.54.104l-8.521-5.588a1.475 1.475 0 00-1.117-.211 1.473 1.473 0 00-.94.64l-.444.683a1.486 1.486 0 00.429 2.051l9.662 6.336v16.752c0 .81.66 1.47 1.47 1.47H31.16c.81 0 1.47-.66 1.47-1.47v-2.689a.633.633 0 10-1.265 0v2.689a.205.205 0 01-.205.205h-7.4c2.268-2.26 5.369-5.39 7.605-7.653v1.773a.633.633 0 101.265 0V25.742l9.663-6.336a1.486 1.486 0 00.429-2.051zm-21.327 5.637h5.139a6213.552 6213.552 0 01-14.876 14.94V32.73l9.737-9.737zM1.423 18.348a.219.219 0 01-.063-.302l.445-.681a.218.218 0 01.303-.063l8.347 5.472c-.04.134-.063.276-.063.423v1.032l-8.969-5.88zm23.262 15.54a.633.633 0 00.895 0l5.784-5.785v5.143c-2.507 2.54-6.837 6.917-9.401 9.453h-5.195l6.7-6.7a.633.633 0 10-.894-.895L14.978 42.7h-3.115a.205.205 0 01-.205-.205V39.72a6087.517 6087.517 0 0016.659-16.729h2.842c.114 0 .206.092.206.205v3.117l-6.68 6.679a.633.633 0 000 .894zm16.914-15.54l-8.969 5.88v-1.03c0-.148-.022-.29-.063-.424l8.348-5.472a.218.218 0 01.302.063l.445.681c.066.101.038.236-.063.302zM17.972 7.131l-.438 2.553c-.076.439.101.874.462 1.136a1.157 1.157 0 001.222.088l2.293-1.205 2.293 1.205c.394.207.863.173 1.223-.088.36-.262.537-.697.462-1.136l-.438-2.553 1.855-1.808c.318-.31.43-.767.293-1.19a1.154 1.154 0 00-.937-.79L23.7 2.97 22.552.647A1.154 1.154 0 0021.512 0c-.446 0-.845.248-1.042.647L19.324 2.97l-2.564.373c-.44.064-.8.366-.937.79-.138.423-.025.88.294 1.19l1.855 1.808zm1.863-2.957a.633.633 0 00.476-.346l1.2-2.431 1.2 2.431c.093.187.27.317.477.346l2.683.39-1.942 1.893a.632.632 0 00-.182.56l.459 2.673-2.4-1.262a.633.633 0 00-.59 0l-2.4 1.262.46-2.673a.633.633 0 00-.183-.56l-1.941-1.893 2.683-.39z"/><path d="M27.638 17.95a.633.633 0 00.698-.56c.007-.058.713-5.965 5.324-10.058a.633.633 0 00-.84-.946c-4.986 4.426-5.713 10.606-5.741 10.867a.633.633 0 00.56.697zM7.1 3.118c5.533 3.778 6.573 14.223 6.583 14.328a.633.633 0 001.26-.117c-.01-.113-.27-2.802-1.26-6.025-1.347-4.386-3.322-7.491-5.87-9.231A.633.633 0 007.1 3.118zm13.778 9.752v5.206a.633.633 0 101.266 0V12.87a.633.633 0 10-1.266 0zm-15.552-.084a2.864 2.864 0 003.437-2.153A2.87 2.87 0 006.61 7.197 2.87 2.87 0 003.174 9.35a2.87 2.87 0 002.152 3.436zm-.92-3.153a1.605 1.605 0 011.92-1.203 1.604 1.604 0 011.204 1.92 1.603 1.603 0 01-1.92 1.203 1.604 1.604 0 01-1.203-1.92zM36.413 6.55a2.873 2.873 0 003.436-2.153 2.848 2.848 0 00-.364-2.164A2.848 2.848 0 0037.696.961a2.87 2.87 0 00-3.436 2.153 2.87 2.87 0 002.152 3.436zm-.92-3.153a1.605 1.605 0 011.92-1.203c.418.096.773.349 1 .711a1.604 1.604 0 01-1.716 2.412 1.604 1.604 0 01-1.203-1.92z"/></svg>